# xmcd
# 
# Track frame offsets:
#     150
#     26250
#     51150
#     73350
#     103725
#     130125
#     156825
#     188475
# 
# Disc length: 2879
# 
# Revision: 2
# Processed by: cddbd v1.5.2PL0 Copyright (c) Steve Scherf et al.
# Submitted via: BonkEnc v1.0.8
# 
DISCID=680b3d08
DTITLE=天野丘 - A Sweet Delusion
DYEAR=2004
DGENRE=Contemporary Jazz
TTITLE0=I Hear A Rhapsody
TTITLE1=The Legend Of Guilry Phygic
TTITLE2=One For Kenny Wheeler
TTITLE3="M"
TTITLE4=Rope Dancer
TTITLE5=A Sweet Delusion
TTITLE6=I Fall In Love Too Easily
TTITLE7=Arrival
EXTD=YEAR: 2004
EXTT0=
EXTT1=
EXTT2=
EXTT3=
EXTT4=
EXTT5=
EXTT6=
EXTT7=
PLAYORDER=
